# xmcd CD database file
#
# Track frame offsets:
#	150
#	12280
#	22310
#	35225
#	44526
#	59011
#	68911
#	82560
#	92781
#	106120
#	115449
#	130479
#	136398
#	147861
#	158555
#	166978
#	177934
#	187008
#	197669
#	207397
#	220505
#	234765
#	246880
#	260001
#	268441
#	278947
#	296059
#	304751
#	316113
#	328095
#
# Disc length: 4538 seconds
#
# Revision: 1
# Processed by: cddbd v1.4PL0 Copyright (c) Steve Scherf et al.
# Submitted via: CDex 1.50
#
DISCID=ca11b81e
DTITLE=Honza Vycital and Greenhorns - Honza Vycital and Greenhorns  CD 1
DYEAR=1900
DGENRE=
TTITLE0=Pivni dzip
TTITLE1=Dzek Blesk z Gandegaj
TTITLE2=Ovoce z Lenina
TTITLE3=Domov mezi gumovniky
TTITLE4=Battledress
TTITLE5=Maslicka cerna jak noc
TTITLE6=Vraceci kocour
TTITLE7=Rodeo
TTITLE8=Divka jmenem Flora
TTITLE9=Carra carra wirra canna
TTITLE10=Kotlik z medi
TTITLE11=Bar, co ma linej Harry
TTITLE12=Adios, cas nespoutas
TTITLE13=Matilda
TTITLE14=Redback pod prknem hajzliku
TTITLE15=Za strizliva je to fajn kluk
TTITLE16=Modry mesic
TTITLE17=Porad cestuju sam
TTITLE18=Tom Dooley
TTITLE19=Kuchar v honackym tabore
TTITLE20=Zacni vetre dout
TTITLE21=Mimozemstan
TTITLE22=Veci, ktere neudela bila zena
TTITLE23=Nebij zenu v nedeli
TTITLE24=Kdo byl nalevo, uz je napravo
TTITLE25=Modlitba za Wimpyho
TTITLE26=Whoo-pee ti yi yo
TTITLE27=Hospoda bez piva
TTITLE28=Glenn Miller story
TTITLE29=To tenkrat v ctyricatom patom
EXTD=
EXTT0=
EXTT1=
EXTT2=
EXTT3=
EXTT4=
EXTT5=
EXTT6=
EXTT7=
EXTT8=
EXTT9=
EXTT10=
EXTT11=
EXTT12=
EXTT13=
EXTT14=
EXTT15=
EXTT16=
EXTT17=
EXTT18=
EXTT19=
EXTT20=
EXTT21=
EXTT22=
EXTT23=
EXTT24=
EXTT25=
EXTT26=
EXTT27=
EXTT28=
EXTT29=
PLAYORDER=
